<?xml version="1.0" encoding="utf-8"?>
<!-- Generator: Adobe Illustrator 26.0.0, SVG Export Plug-In . SVG Version: 6.00 Build 0)  -->
<svg version="1.1" id="Layer_1" xmlns="http://www.w3.org/2000/svg" xmlns:xlink="http://www.w3.org/1999/xlink" x="0px" y="0px"
	 viewBox="0 0 6422.8 4281.9" style="enable-background:new 0 0 6422.8 4281.9;" xml:space="preserve">
<style type="text/css">
	.st0{fill:#00247D;}
	.st1{fill:#FFFFFF;}
	.st2{fill:#CF142B;}
</style>
<g>
	<g>
		<polygon class="st0" points="0,2854.6 0,3836.2 1472.4,2854.6 		"/>
		<polygon class="st0" points="5754.3,0 3925,0 3925,1219.5 		"/>
		<polygon class="st0" points="668.5,4281.9 2497.8,4281.9 2497.8,3062.4 		"/>
		<polygon class="st0" points="0,445.7 0,1427.3 1472.4,1427.3 		"/>
		<polygon class="st0" points="2497.8,0 668.5,0 2497.8,1219.5 		"/>
		<polygon class="st0" points="6422.8,3836.2 6422.8,2854.6 4950.4,2854.6 		"/>
		<polygon class="st0" points="6422.8,1427.3 6422.8,445.7 4950.4,1427.3 		"/>
		<polygon class="st0" points="3925,4281.9 5754.3,4281.9 3925,3062.4 		"/>
		<polygon class="st1" points="2497.8,1427.3 2497.8,1219.5 668.5,0 0,0 2140.9,1427.3 		"/>
		<polygon class="st1" points="1695.3,1427.3 0,297.1 0,445.7 1472.4,1427.3 		"/>
		<polygon class="st1" points="3925,2854.6 3925,3062.4 5754.3,4281.9 6422.8,4281.9 4281.9,2854.6 		"/>
		<polygon class="st1" points="2497.8,2913.8 445.7,4281.9 668.5,4281.9 2497.8,3062.4 		"/>
		<polygon class="st1" points="1472.4,2854.6 0,3836.2 0,4281.9 2140.9,2854.6 		"/>
		<polygon class="st1" points="4727.5,2854.6 6422.8,3984.8 6422.8,3836.2 4950.4,2854.6 		"/>
		<polygon class="st1" points="4950.4,1427.3 6422.8,445.7 6422.8,0 4281.9,1427.3 		"/>
		<polygon class="st1" points="3925,1368.1 5977.1,0 5754.3,0 3925,1219.5 		"/>
		<polygon class="st2" points="2140.9,1427.3 0,0 0,297.1 1695.3,1427.3 		"/>
		<polygon class="st2" points="4727.5,2854.6 4281.9,2854.6 6422.8,4281.9 6422.8,3984.8 		"/>
		<polygon class="st2" points="2497.8,2854.6 2140.9,2854.6 0,4281.9 445.7,4281.9 2497.8,2913.8 		"/>
		<polygon class="st2" points="3925,1427.3 4281.9,1427.3 6422.8,0 5977.1,0 3925,1368.1 		"/>
		<polygon class="st1" points="3639.6,1712.7 6422.8,1712.7 6422.8,1427.3 4950.4,1427.3 4281.9,1427.3 3925,1427.3 3925,1368.1 
			3925,1219.5 3925,0 3639.6,0 		"/>
		<polygon class="st1" points="3925,2854.6 4281.9,2854.6 4727.5,2854.6 4950.4,2854.6 6422.8,2854.6 6422.8,2569.1 3639.6,2569.1 
			3639.6,4281.9 3925,4281.9 3925,3062.4 		"/>
		<polygon class="st1" points="2783.2,2569.1 0,2569.1 0,2854.6 1472.4,2854.6 2140.9,2854.6 2497.8,2854.6 2497.8,2913.8 
			2497.8,3062.4 2497.8,4281.9 2783.2,4281.9 		"/>
		<polygon class="st1" points="2783.2,1712.7 2783.2,0 2497.8,0 2497.8,1219.5 2497.8,1427.3 2140.9,1427.3 1695.3,1427.3 
			1472.4,1427.3 0,1427.3 0,1712.7 		"/>
		<polygon class="st2" points="3639.6,2569.1 6422.8,2569.1 6422.8,2140.9 6422.8,1712.7 3639.6,1712.7 3639.6,0 3211.4,0 2783.2,0 
			2783.2,1712.7 0,1712.7 0,2140.9 0,2569.1 2783.2,2569.1 2783.2,4281.9 3211.4,4281.9 3639.6,4281.9 		"/>
	</g>
</g>
</svg>
